{"title":"Raja Natwarlal (2014) - 720p - DVDSCR-Rip - Hindi - x264 - MP3 -","uid":10942094,"size":1063873963,"categoryP":"video","categoryS":"hd___movies","magnet":"?xt=urn:btih:3f16021c9dd5a62fce0b64234dff8b1917caef2c&amp;dn=Raja+Natwarlal+%282014%29+-+720p+-+DVDSCR-Rip+-+Hindi+-+x264+-+MP3+-&amp;tr=udp%3A%2F%2Ftracker.openbittorrent.com%3A80&amp;tr=udp%3A%2F%2Fopen.demonii.com%3A1337&amp;tr=udp%3A%2F%2Ftracker.coppersurfer.tk%3A6969&amp;tr=udp%3A%2F%2Fexodus.desync.com%3A6969","seeders":7,"leechers":1,"uploader":"inovai","files":4,"time":1409552750,"description":"Raja Natwarlal (2014) - 720p - DVDSCR-Rip - Hindi - x264 - MP3 - Mafiaking - TeamTNT\n\nCover:\n &lt;a href=&quot;\nhttp://forum.primetimeshow.in/viewtopic.php?f=7&amp;t=617&quot; rel=&quot;nofollow&quot; target=&quot;_NEW&quot;&gt;\nhttp://forum.primetimeshow.in/viewtopic.php?f=7&amp;t=617&lt;/a&gt;\n\n\nIMDB Rating: 7.6/10.0\n\n\nGENRE: Drama | Thriller\n\nScreenshots:\n &lt;a href=&quot;\nhttp://img.primetimeshow.in/share.php?id=6942_5403F4F8&quot; rel=&quot;nofollow&quot; target=&quot;_NEW&quot;&gt;\nhttp://img.primetimeshow.in/share.php?id=6942_5403F4F8&lt;/a&gt;\n &lt;a href=&quot;\nhttp://img.primetimeshow.in/share.php?id=655D_5403F4F8&quot; rel=&quot;nofollow&quot; target=&quot;_NEW&quot;&gt;\nhttp://img.primetimeshow.in/share.php?id=655D_5403F4F8&lt;/a&gt;\n &lt;a href=&quot;\nhttp://img.primetimeshow.in/share.php?id=7424_5403F4F8&quot; rel=&quot;nofollow&quot; target=&quot;_NEW&quot;&gt;\nhttp://img.primetimeshow.in/share.php?id=7424_5403F4F8&lt;/a&gt;\n &lt;a href=&quot;\nhttp://img.primetimeshow.in/share.php?id=FE87_5403F4F8&quot; rel=&quot;nofollow&quot; target=&quot;_NEW&quot;&gt;\nhttp://img.primetimeshow.in/share.php?id=FE87_5403F4F8&lt;/a&gt;\n &lt;a href=&quot;\nhttp://img.primetimeshow.in/share.php?id=213F_5403F4F8&quot; rel=&quot;nofollow&quot; target=&quot;_NEW&quot;&gt;\nhttp://img.primetimeshow.in/share.php?id=213F_5403F4F8&lt;/a&gt;\n\n\nGeneral Info:\nUnique ID : 216067589579693818972363257234438306005 (0xA28D1AA4E04B50088D80B7016CB938D5)\nComplete name : Raja Natwarlal (2014) - 720p - DVDSCR-Rip - Hindi - x264 - MP3 - Mafiaking - TeamTNT.mkv\nFormat : Matroska\nFormat version : Version 4 / Version 2\nFile size : 1 008 MiB\nDuration : 2h 16mn\nOverall bit rate : 1 031 Kbps\nMovie name : Raja Natwarlal (2014) - 720p - DVDSCR-Rip - Hindi - x264 - MP3 - Mafiaking - TeamTNT\nEncoded date : UTC 2014-08-31 09:59:55\nWriting application : mkvmerge v7.0.0 ('Where We Going') 32bit built on Jun 9 2014 15:08:34\nWriting library : libebml v1.3.0 + libmatroska v1.4.1\n\n\nVideo\nID : 1\nFormat : AVC\nFormat/Info : Advanced Video Codec\nFormat profile : &lt;a class=&quot;__cf_email__&quot; href=&quot;/cdn-cgi/l/email-protection&quot; data-cfemail=&quot;d39bbab4bb939fe0fde2&quot;&gt;[email&amp;#160;protected]&lt;/a&gt;&lt;script cf-hash='f9e31' type=&quot;text/javascript&quot;&gt;\n/* &lt;![CDATA[ */!function(){try{var t=&quot;currentScript&quot;in document?document.currentScript:function(){for(var t=document.getElementsByTagName(&quot;script&quot;),e=t.length;e--;)if(t[e].getAttribute(&quot;cf-hash&quot;))return t[e]}();if(t&amp;&amp;t.previousSibling){var e,r,n,i,c=t.previousSibling,a=c.getAttribute(&quot;data-cfemail&quot;);if(a){for(e=&quot;&quot;,r=parseInt(a.substr(0,2),16),n=2;a.length-n;n+=2)i=parseInt(a.substr(n,2),16)^r,e+=String.fromCharCode(i);e=document.createTextNode(e),c.parentNode.replaceChild(e,c)}}}catch(u){}}();/* ]]&gt; */&lt;/script&gt;\nFormat settings, CABAC : Yes\nFormat settings, ReFrames : 4 frames\nCodec ID : V_MPEG4/ISO/AVC\nDuration : 2h 16mn\nBit rate : 901 Kbps\nWidth : 1 280 pixels\nHeight : 544 pixels\nDisplay aspect ratio : 2.35:1\nFrame rate mode : Constant\nFrame rate : 25.000 fps\nColor space : YUV\nChroma subsampling : 4:2:0\nBit depth : 8 bits\nScan type : Progressive\nBits/(Pixel*Frame) : 0.052\nStream size : 863 MiB (86%)\nTitle : Mafiaking\nWriting library : x264 core 142 r2431 ac76440\nLanguage : Hindi\nDefault : Yes\nForced : No\n\n\nAudio\nID : 2\nFormat : MPEG Audio\nFormat version : Version 1\nFormat profile : Layer 3\nCodec ID : A_MPEG/L3\nCodec ID/Hint : MP3\nDuration : 2h 16mn\nBit rate mode : Constant\nBit rate : 128 Kbps\nChannel(s) : 2 channels\nSampling rate : 48.0 KHz\nCompression mode : Lossy\nDelay relative to video : 24ms\nStream size : 125 MiB (12%)\nTitle : Mafiaking\nWriting library : LAMELAME_MAJOR_VERSI\nLanguage : Hindi\nDefault : Yes\nForced : No\n\nThanks to Mafiaking - TeamTNT!!\n\nSeed n Enjoy!!","torrent":{"xt":"urn:btih:3f16021c9dd5a62fce0b64234dff8b1917caef2c","amp;dn":"Raja+Natwarlal+%282014%29+-+720p+-+DVDSCR-Rip+-+Hindi+-+x264+-+MP3+-","amp;tr":["udp%3A%2F%2Ftracker.openbittorrent.com%3A80","udp%3A%2F%2Fopen.demonii.com%3A1337","udp%3A%2F%2Ftracker.coppersurfer.tk%3A6969","udp%3A%2F%2Fexodus.desync.com%3A6969"],"infoHash":"3f16021c9dd5a62fce0b64234dff8b1917caef2c","infoHashBuffer":{"type":"Buffer","data":[63,22,2,28,157,213,166,47,206,11,100,35,77,255,139,25,23,202,239,44]},"announce":[],"urlList":[]}}